<svg width="152" height="152" xmlns="http://www.w3.org/2000/svg">
  <rect width="152" height="152" fill="#e11d48"/>
  <path d="M 76 111
           C 76 95, 60 79, 60 95
           C 60 103, 67 111, 76 127
           C 85 111, 92 103, 92 95
           C 92 79, 76 95, 76 111
           Z" fill="white"/>
  <path d="M 76 47
           C 63 47, 54 57, 54 69
           C 54 79, 60 85, 70 85
           C 76 85, 82 79, 76 95
           C 70 79, 76 79, 82 85
           C 92 85, 98 79, 98 69
           C 98 57, 89 47, 76 47
           Z" fill="white"/>
</svg>
