<svg width="180" height="180" xmlns="http://www.w3.org/2000/svg">
  <rect width="180" height="180" fill="#e11d48"/>
  <path d="M 90 131
           C 90 112, 68 94, 68 112
           C 68 122, 79 131, 90 150
           C 101 131, 112 122, 112 112
           C 112 94, 90 112, 90 131
           Z" fill="white"/>
  <path d="M 90 56
           C 75 56, 64 68, 64 82
           C 64 94, 71 101, 83 101
           C 90 101, 97 94, 90 112
           C 83 94, 90 94, 97 101
           C 109 101, 116 94, 116 82
           C 116 68, 105 56, 90 56
           Z" fill="white"/>
</svg>
