<svg width="120" height="120" xmlns="http://www.w3.org/2000/svg">
  <rect width="120" height="120" fill="#e11d48"/>
  <path d="M 60 88
           C 60 75, 48 63, 48 75
           C 48 81, 53 88, 60 100
           C 67 88, 72 81, 72 75
           C 72 63, 60 75, 60 88
           Z" fill="white"/>
  <path d="M 60 37
           C 50 37, 43 45, 43 55
           C 43 63, 48 67, 55 67
           C 60 67, 65 63, 60 75
           C 55 63, 60 63, 65 67
           C 72 67, 77 63, 77 55
           C 77 45, 70 37, 60 37
           Z" fill="white"/>
</svg>
