<svg width="512" height="512" xmlns="http://www.w3.org/2000/svg">
  <rect width="512" height="512" fill="#e11d48"/>
  <path d="M 256 373
           C 256 320, 192 266, 192 320
           C 192 346, 224 373, 256 426
           C 288 373, 320 346, 320 320
           C 320 266, 256 320, 256 373
           Z" fill="white"/>
  <path d="M 256 160
           C 213 160, 181 192, 181 234
           C 181 266, 202 288, 234 288
           C 256 288, 278 266, 256 320
           C 234 266, 256 266, 278 288
           C 310 288, 331 266, 331 234
           C 331 192, 299 160, 256 160
           Z" fill="white"/>
</svg>
