<svg width="192" height="192" xmlns="http://www.w3.org/2000/svg">
  <rect width="192" height="192" fill="#e11d48"/>
  <path d="M 96 140
           C 96 120, 72 100, 72 120
           C 72 130, 84 140, 96 160
           C 108 140, 120 130, 120 120
           C 120 100, 96 120, 96 140
           Z" fill="white"/>
  <path d="M 96 60
           C 80 60, 68 72, 68 88
           C 68 100, 76 108, 88 108
           C 96 108, 104 100, 96 120
           C 88 100, 96 100, 104 108
           C 116 108, 124 100, 124 88
           C 124 72, 112 60, 96 60
           Z" fill="white"/>
</svg>
